<?xml version="1.0" encoding="UTF-8"?>
<svg id="Layer_2" data-name="Layer 2" xmlns="http://www.w3.org/2000/svg" viewBox="0 0 299.12 57.6">
  <defs>
    <style>
      .cls-1 {
        fill: #9a2634;
      }

      .cls-2 {
        fill: #152634;
      }

      .cls-3 {
        fill: #ba736c;
      }
    </style>
  </defs>
  <g id="Layer_1-2" data-name="Layer 1">
    <g>
      <g>
        <path class="cls-2" d="M106.88,9.12l-7.07,7.73c-1.65-2.11-4.95-3.1-7.46-3.1-2.84,0-6.93,1.32-6.93,4.82,0,4.09,4.95,4.95,10.1,6.54,5.61,1.72,11.43,4.42,11.43,12.88,0,10.63-8.52,15.39-18.03,15.39-6.01,0-11.29-1.72-15.72-5.88l7.33-8.06c2.18,2.77,5.48,4.42,8.98,4.42,2.84,0,7.13-1.25,7.13-4.89,0-4.09-4.95-5.15-10.17-6.87-5.75-1.85-11.75-4.49-11.75-12.68,0-9.97,8.72-15.19,17.83-15.19,5.22,0,10.3,1.39,14.33,4.89Z"/>
        <path class="cls-2" d="M124.77,5.42v46.75h-10.3V5.42h10.3Z"/>
        <path class="cls-2" d="M149.73,5.42l10.76,30.51h.13l10.83-30.51h15.52v46.75h-10.3V16.32h-.13l-12.28,35.86h-7.86l-11.82-35.86h-.13v35.86h-10.3V5.42h15.58Z"/>
        <path class="cls-2" d="M234.97,11.1l-7.92,6.47c-2.25-2.71-5.35-3.83-8.85-3.83-7.33,0-13.54,5.88-13.54,15.06,0,7.79,5.02,15.06,13.21,15.06,4.03,0,7.4-1.65,9.64-5.02l8.58,6.4c-3.7,5.42-10.5,8.12-16.9,8.12-14.66,0-25.22-9.64-25.22-24.56s10.5-24.57,25.22-24.57c6.14,0,12.28,2.38,15.78,6.87Z"/>
        <path class="cls-2" d="M257.01,19.45l14.24,32.73h-8.14l-2.82-6.93h-12.71l-2.73,6.93h-7.95l14.14-32.73h5.96ZM249.85,39.14h8l-4.02-10.17-3.98,10.17Z"/>
        <path class="cls-2" d="M286.92,19.45c7.86,0,12.2,3.19,12.2,9.94s-4.35,10.03-11.88,10.03h-5.5v12.76h-7.21V19.45h12.39ZM286.68,33.32c2.87,0,4.95-1.25,4.95-3.93,0-2.54-1.94-3.84-6.01-3.84h-3.88v7.77h4.95Z"/>
      </g>
      <g>
        <polygon class="cls-2" points="9.06 40.46 33.1 11.07 57.14 40.46 66.2 40.46 33.1 0 0 40.46 9.06 40.46"/>
        <polygon class="cls-1" points="18.11 44.95 33.16 26.57 48.2 44.95 57.26 44.95 33.16 15.49 9.05 44.95 18.11 44.95"/>
        <polygon class="cls-3" points="26.83 49.62 33.16 41.89 39.48 49.62 48.55 49.62 33.16 30.81 17.77 49.62 26.83 49.62"/>
        <polygon class="cls-2" points="33.15 45.6 27.9 52.02 27.9 57.6 38.41 57.6 38.41 52.02 33.15 45.6"/>
      </g>
    </g>
  </g>
</svg>